<svg xmlns="http://www.w3.org/2000/svg" viewBox="0 0 1200 320" width="1200" height="320" role="img"><rect x="0" y="0" width="1200" height="320" rx="32" ry="32" fill="#F5EEFA"/><rect x="48" y="48" width="380" height="224" rx="28" ry="28" fill="#6750A4"/><polygon points="238.00,86.00 249.36,116.37 281.75,117.79 256.37,137.97 265.04,169.21 238.00,151.32 210.96,169.21 219.63,137.97 194.25,117.79 226.64,116.37" fill="#FFFFFF"/><text x="238" y="210" font-family="Roboto, 'Segoe UI', 'Helvetica Neue', Arial, sans-serif" font-size="40" font-weight="600" fill="#FFFFFF" text-anchor="middle" letter-spacing="1">1&#8211;5</text><text x="238" y="244" font-family="Roboto, 'Segoe UI', 'Helvetica Neue', Arial, sans-serif" font-size="13" font-weight="600" fill="#EADDFF" text-anchor="middle" letter-spacing="3">COMMUNITY RATED</text><text x="476" y="138" font-family="Roboto, 'Segoe UI', 'Helvetica Neue', Arial, sans-serif" font-size="76" font-weight="700" fill="#1D1B20" text-anchor="start">RateMat</text><text x="478" y="186" font-family="Roboto, 'Segoe UI', 'Helvetica Neue', Arial, sans-serif" font-size="22" font-weight="400" fill="#49454F" text-anchor="start">A Telegram dating bot where a verified community &#8212; not an algorithm &#8212;</text><text x="478" y="218" font-family="Roboto, 'Segoe UI', 'Helvetica Neue', Arial, sans-serif" font-size="22" font-weight="400" fill="#49454F" text-anchor="start">decides who stands out.</text><rect x="478" y="246" width="124" height="40" rx="20" ry="20" fill="#E8DEF8"/><text x="540.0" y="271" font-family="Roboto, 'Segoe UI', 'Helvetica Neue', Arial, sans-serif" font-size="15" font-weight="500" fill="#1D192B" text-anchor="middle">aiogram 3</text><rect x="616" y="246" width="114" height="40" rx="20" ry="20" fill="#FFD8E4"/><text x="673.0" y="271" font-family="Roboto, 'Segoe UI', 'Helvetica Neue', Arial, sans-serif" font-size="15" font-weight="500" fill="#31111D" text-anchor="middle">Supabase</text><rect x="744" y="246" width="144" height="40" rx="20" ry="20" fill="#EADDFF"/><text x="816.0" y="271" font-family="Roboto, 'Segoe UI', 'Helvetica Neue', Arial, sans-serif" font-size="15" font-weight="500" fill="#21005D" text-anchor="middle">Python 3.12</text></svg>
