<svg xmlns="http://www.w3.org/2000/svg" viewBox="0 0 1200 300" width="1200" height="300" role="img"><rect x="0" y="0" width="1200" height="300" rx="32" ry="32" fill="#F5EEFA"/><text x="56" y="74" font-family="Roboto, 'Segoe UI', 'Helvetica Neue', Arial, sans-serif" font-size="34" font-weight="700" fill="#1D1B20" text-anchor="start">User journey</text><rect x="56" y="120" width="200" height="110" rx="24" ry="24" fill="#EADDFF"/><text x="156.0" y="172" font-family="Roboto, 'Segoe UI', 'Helvetica Neue', Arial, sans-serif" font-size="24" font-weight="700" fill="#21005D" text-anchor="middle">Start</text><text x="156.0" y="200" font-family="Roboto, 'Segoe UI', 'Helvetica Neue', Arial, sans-serif" font-size="14" font-weight="400" fill="#21005D" text-anchor="middle">/start &#183; welcome</text><polygon points="262.0,167 274.0,175 262.0,183" fill="#7A757F"/><rect x="280" y="120" width="200" height="110" rx="24" ry="24" fill="#E8DEF8"/><text x="380.0" y="172" font-family="Roboto, 'Segoe UI', 'Helvetica Neue', Arial, sans-serif" font-size="24" font-weight="700" fill="#1D192B" text-anchor="middle">Verify</text><text x="380.0" y="200" font-family="Roboto, 'Segoe UI', 'Helvetica Neue', Arial, sans-serif" font-size="14" font-weight="400" fill="#1D192B" text-anchor="middle">5s video note</text><polygon points="486.0,167 498.0,175 486.0,183" fill="#7A757F"/><rect x="504" y="120" width="200" height="110" rx="24" ry="24" fill="#EADDFF"/><text x="604.0" y="172" font-family="Roboto, 'Segoe UI', 'Helvetica Neue', Arial, sans-serif" font-size="24" font-weight="700" fill="#21005D" text-anchor="middle">Profile</text><text x="604.0" y="200" font-family="Roboto, 'Segoe UI', 'Helvetica Neue', Arial, sans-serif" font-size="14" font-weight="400" fill="#21005D" text-anchor="middle">5-step wizard</text><polygon points="710.0,167 722.0,175 710.0,183" fill="#7A757F"/><rect x="728" y="120" width="200" height="110" rx="24" ry="24" fill="#E8DEF8"/><text x="828.0" y="172" font-family="Roboto, 'Segoe UI', 'Helvetica Neue', Arial, sans-serif" font-size="24" font-weight="700" fill="#1D192B" text-anchor="middle">Feed</text><text x="828.0" y="200" font-family="Roboto, 'Segoe UI', 'Helvetica Neue', Arial, sans-serif" font-size="14" font-weight="400" fill="#1D192B" text-anchor="middle">rate 1&#8211;5 &#9733;</text><polygon points="934.0,167 946.0,175 934.0,183" fill="#7A757F"/><rect x="952" y="120" width="200" height="110" rx="24" ry="24" fill="#FFD8E4"/><text x="1052.0" y="172" font-family="Roboto, 'Segoe UI', 'Helvetica Neue', Arial, sans-serif" font-size="24" font-weight="700" fill="#31111D" text-anchor="middle">Moderation</text><text x="1052.0" y="200" font-family="Roboto, 'Segoe UI', 'Helvetica Neue', Arial, sans-serif" font-size="14" font-weight="400" fill="#31111D" text-anchor="middle">report &#183; ban</text></svg>
